# xmcd
#
# Track frame offsets:
#	150
#	11398
#	24145
#	35890
#	46497
#	62208
#	73677
#	83850
#	98495
#	106625
#	117342
#	134326
#	147264
#	161153
#	171394
#	181066
#	193563
#	213825
#	222947
#	238942
#
# Disc length: 3348
#
# Revision: 1
# Processed by: cddbd v1.5.1PL0 Copyright (c) Steve Scherf et al.
# Submitted via: WhereIsIt 3.25
# Normalized: r0:DSETVAR1
#
DISCID=180d1214
DTITLE=Various Artist - All Star Country - Volume 4 - Country Stars
DYEAR=1900
DGENRE=
TTITLE0=Don Gibson - Oh Lonesome Me
TTITLE1=Johnny Cash - Folsom Prison Blues
TTITLE2=Ned Miller - Do What You Do Do Well
TTITLE3=Patsy Cline - Lovesick Blues
TTITLE4=Cal Smith - Country Bumpkin
TTITLE5=Kitty Wells - It Wasn't God Who Made Honky Tonk Angels
TTITLE6=Carl Perkins - Everybody's Trying To Be My Baby
TTITLE7=Sandy Posey - Put Your Hand In The Hand
TTITLE8=Willie Nelson - Things To Remember
TTITLE9=Waylon Jennings - Sally Was A Good Old Girl
TTITLE10=Conway Twitty - Don't Cry Joni
TTITLE11=Merle Haggard - The Fightin' Side Of Me
TTITLE12=Barbara Fairchild - Crazy Love
TTITLE13=Wanda Jackson - Let's Have A Party
TTITLE14=Jerry Lee Lewis - Walk Right In
TTITLE15=The Oak Ridge Boys - You'll Never Walk Alone
TTITLE16=Gram Parsons and Emmy Lou Harris - Love Hurts
TTITLE17=Roger Miller - Chug-A-Lug
TTITLE18=Sylvia - Nobody
TTITLE19=Frankie Laine - Jezebel
EXTD=
EXTT0=
EXTT1=
EXTT2=
EXTT3=
EXTT4=
EXTT5=
EXTT6=
EXTT7=
EXTT8=
EXTT9=
EXTT10=
EXTT11=
EXTT12=
EXTT13=
EXTT14=
EXTT15=
EXTT16=
EXTT17=
EXTT18=
EXTT19=
PLAYORDER=
